<?xml version="1.0" encoding="UTF-8"?>
<!DOCTYPE svg PUBLIC "-//W3C//DTD SVG 1.1//EN" "http://www.w3.org/Graphics/SVG/1.1/DTD/svg11.dtd">
<!-- Creator: CorelDRAW -->
<svg xmlns="http://www.w3.org/2000/svg" xml:space="preserve" width="84.6666mm" height="31.5832mm" version="1.1" style="shape-rendering:geometricPrecision; text-rendering:geometricPrecision; image-rendering:optimizeQuality; fill-rule:evenodd; clip-rule:evenodd"
viewBox="0 0 8466.66 3158.32"
 xmlns:xlink="http://www.w3.org/1999/xlink"
 xmlns:xodm="http://www.corel.com/coreldraw/odm/2003">
 <defs>
  <style type="text/css">
   <![CDATA[
    .fil6 {fill:none}
    .fil2 {fill:#2348AB}
    .fil3 {fill:#72CCA6}
    .fil1 {fill:#72F436}
    .fil4 {fill:#8EAAD8}
    .fil5 {fill:#F435B1}
    .fil0 {fill:#F5C523}
   ]]>
  </style>
 </defs>
 <g id="Layer_x0020_1">
  <metadata id="CorelCorpID_0Corel-Layer"/>
  <g id="_2089549547040">
   <path class="fil0" d="M541.58 2743.07c-9.69,-30.48 -5.88,-273.67 -3.98,-333.69 1.29,-40.78 -4.42,-33.71 74.71,-34.17 131.27,-0.76 308.84,-14.24 390.04,56.86 58.71,51.41 83.85,229.67 -61.77,294.03 -100.31,44.34 -279.72,42.9 -399,16.97zm-3.59 -731.51c-2.38,-66.68 -2.5,-140.81 -1.74,-207.67 1.85,-162.49 -8.09,-147.02 57.46,-151.89 156.43,-11.63 428.95,-24.08 405.78,201.92 -20.14,196.28 -282.57,156.49 -461.5,157.64zm710.79 134.57c271.04,-97.04 336.78,-374.47 213.94,-611.59 -98.73,-190.59 -366.43,-269.86 -650.46,-281.62 -154.97,-6.42 -717.61,-3.78 -773.57,164.8 -21.59,65.04 -10.8,363.32 -10.73,454.89l-0.43 930.84c0,175.51 42.02,237.15 179.33,287.41 213.25,78.06 595.76,87.71 837.34,45.46 261.28,-45.7 467.6,-162.93 524.87,-413.07 30.97,-135.3 15.11,-279.59 -53.81,-379.26 -40.63,-58.77 -122.84,-128.41 -191.3,-158.55 -39.2,-17.25 -60.38,-18.98 -75.18,-39.31z"/>
   <path class="fil1" d="M5852.1 2328.66c-0.18,-80.18 -18.46,-211.67 36.34,-252.81 54.94,-41.24 166.77,32.49 212.68,54.9 66.18,32.3 128.62,62.36 191.85,95.43 58.11,30.39 152.25,59.74 149.67,133.77 -1.61,46.13 -31.25,60.95 -64.7,80.89 -70.7,42.16 -203.91,103.1 -285.63,145.59 -49.2,25.58 -148.16,89.7 -209.13,44.16 -52.13,-38.94 -30.87,-205.03 -31.08,-301.93zm-565.46 81.21c37.07,452.19 459.04,788.32 900.14,740.37 127.99,-13.91 216.88,-46.62 316.52,-96.74 91.64,-46.11 168.74,-117.1 228.13,-184.43 133.3,-151.13 215.93,-352.97 196.01,-628.15 -30.75,-424.69 -440.13,-790.42 -902.93,-738.65 -271.96,30.43 -489.85,176.83 -628.31,400.04 -92.01,148.31 -124.52,325.19 -109.56,507.56z"/>
   <path class="fil2" d="M8462.27 3113.6c7.87,-44.06 2.76,-431.51 2.75,-510.06 0,-95.02 4.51,-431.74 -4.26,-500.67 -14.15,-111.18 -41.74,-191.81 -114.58,-273.76 -10.91,-12.27 -16.7,-23.18 -28.27,-34.3 -106.53,-102.41 -253.52,-153.11 -400.74,-169.31 -163.51,-17.98 -314.56,-9.4 -464.19,26.94 -110.97,26.94 -281.18,98.44 -339.83,167.65 -45.14,53.26 -74.57,71.69 -78.32,177.23 -7.33,206.72 -0.17,539.94 -0.23,756.15 -0.09,271.8 -2.32,422.76 383.5,378.05 155.25,-17.99 127.4,8.14 127.46,-121.91 0.09,-170.76 0.15,-341.52 0.08,-512.28 -0.03,-85.38 -0.12,-170.76 -0.2,-256.13 -0.14,-146.46 -15.29,-166.45 54.98,-195.25 58.36,-23.91 149.12,-39.11 221.27,-23.47 170.87,37.03 132.6,199.62 132.76,381.15 0.08,83.28 -0.17,166.59 -0.26,249.88 -0.16,142.74 -25.02,362.34 70.91,433.81 97.82,72.87 308.13,55 437.17,26.28z"/>
   <path class="fil2" d="M1694.37 1678.47c-7.72,115.01 -1.22,476.66 -1.21,618.95 0.02,205.38 -18.15,381.78 67.3,551.01 136.73,270.78 521.65,357.95 907.94,294.01 158.93,-26.32 353.69,-94.83 418.5,-200.98 43.61,-71.44 36.72,-178.82 36.69,-275.45 -0.06,-176.53 15.76,-817.61 -23.79,-900.88 -33.92,-71.39 -98.53,-102.88 -200.95,-108.01 -80.44,-4.02 -215.03,2.25 -286.18,23.93l-0.01 1050.48c-139.39,42.88 -332.41,53.65 -388.4,-78.34 -34.41,-81.08 -20.34,-387.69 -20.24,-499.46 0.15,-162.34 28.13,-357.41 -70.01,-447.19 -92.67,-84.76 -312.93,-44.06 -439.64,-28.07z"/>
   <path class="fil2" d="M4840.11 2163.68c120.53,0 321.25,25.55 392.93,-43.34 72.9,-70.06 49.38,-255.87 -0.01,-346.16l-392.26 -0.7c-12.56,-155.18 33.99,-317.44 -88.74,-392.33 -93.82,-57.25 -307.67,-43.35 -413.2,-11.68 -11.03,50.7 -3.42,693.11 -3.42,803.01 0,211.25 -26.68,585.91 51.35,748.68 97.86,204.11 350.07,247.84 562.91,234.33 306.58,-19.47 391.56,-215.56 259.05,-424.57 -117.91,19.49 -334.84,68.7 -364.95,-79.59 -8.9,-43.86 -5.44,-418.43 -3.66,-487.65z"/>
   <path class="fil2" d="M3791.73 2163.68c120.98,0 325.72,23.66 390.67,-44.47 82.22,-86.23 47.95,-262.16 1.56,-345.05l-391.44 -0.68c-6.14,-86.64 4.11,-168.44 -7.66,-256.32 -11.57,-86.33 -43.07,-124.59 -111.68,-150.88 -106.3,-40.73 -234.81,-23.48 -347.46,-4.84 -31.07,5.13 -36.09,-1.8 -39.78,23.11l0.31 1106.54c0,181.14 -10.87,313.05 67.45,457.17 54.61,100.49 172.59,170.79 321.83,196.73 134.86,23.43 343.06,20.95 442.55,-46.6 47.24,-32.06 90.45,-86.56 100.23,-163.46 5.78,-45.39 0.46,-80.67 -14.18,-118.67l-43.38 -84.15c-131.64,16.33 -330.32,69.35 -365.32,-82.28 -15.43,-66.86 -5.15,-394.29 -3.7,-486.15z"/>
   <path class="fil3" d="M4918.48 916.78c30.33,-214.67 -123.85,-383.46 -302.24,-405.52 -359.23,-44.44 -529.92,354.66 -333.15,589.46 7.73,9.22 37.79,38.66 47.22,46.16 50.12,39.87 114.11,71.98 181.38,78.8 218.63,22.18 379.29,-114.37 406.79,-308.9z"/>
   <path class="fil2" d="M1043.66 614.83c1.87,-33.91 103.69,-333.72 122.11,-370.21 16.55,27.35 126.18,332.55 125.92,369.74l-248.03 0.47zm-49.02 152.95l347.36 0.75c29.23,56.27 43.88,145.98 70.9,209.34l193.11 -0.23 -319 -916.25c-66.64,-9.61 -161.81,-2.9 -230.73,-0.25 -59.56,138.89 -110.7,308.52 -162.09,456.57 -26.86,77.41 -53.34,154.98 -80.44,231.96 -15.01,42.66 -73.24,194.16 -75.35,228.03l185.14 1.45 71.1 -211.37z"/>
   <path class="fil2" d="M2654.2 431.94l-11.54 11.14 0.11 -34.18 -0.24 -351.13 -183.21 2.9 -0.57 918.27 183.07 0.22 4.24 -401.18c28.8,17.03 151.74,170.22 176.9,202.27 29.21,37.22 54.5,67.99 83.24,104.39 97.4,123.34 50.04,94.13 290.57,92.17l-332.09 -425.72c-15.88,-19.22 -34.09,-39.71 -44.93,-58.71 11.83,-20.39 27.66,-35.53 42.89,-55.15 39.92,-51.42 285.68,-346.52 299.53,-377.37 -231.11,-0.09 -175.35,-26.05 -271.83,92.51l-157.54 192.33c-24.13,26.29 -52.48,62.96 -78.6,87.24z"/>
   <path class="fil2" d="M3793.14 285c21.26,-37.9 80.13,-102.86 91.59,-131.64 -49.82,-45.3 -129.89,-88.13 -219.68,-101.99 -435.51,-67.24 -516.15,306.38 -338.17,449.92 140.4,113.23 435.74,62.23 401.16,239 -20.12,102.91 -150.59,102.01 -218.9,84.25 -42.8,-11.13 -78.55,-31.29 -108.58,-53.66 -47.33,-35.26 -62.94,-64.31 -83.19,-74.24 -22.09,20.95 -33.92,38.69 -55.93,64.17 -16.31,18.89 -41.23,46.78 -48.85,68.51 50.25,45.07 71.39,86.19 151.27,121.69 66.84,29.7 149.1,41.54 234.63,41.57 297.48,0.13 373.25,-258.36 287.46,-419.47 -68.87,-129.34 -217.52,-129.57 -347.15,-165.76 -212.89,-59.44 -121.36,-233.44 77.36,-201.91 98.67,15.65 136.72,63.65 176.98,79.56z"/>
   <path class="fil2" d="M7147.02 1339.37c3.79,-24.27 49.63,-95.92 62.26,-135.25 24.66,-76.8 3.14,-106.67 -5.85,-179.14 -101.92,10.52 -166.04,39.86 -312.64,44.5 -113.21,3.59 -223.3,-2.5 -329.97,-23.94 -198.89,-39.97 -360.63,-123.47 -451.65,-246.67 -135.6,-183.53 -89.68,-362.18 34.52,-504.45 261.78,-299.86 1283.61,-369.92 1481.29,175.48 108.29,298.77 -91.42,643.97 -362.36,805.85 -27.51,16.44 -83.74,54.41 -115.6,63.62zm12.77 -235.15c-3.22,82.09 -49.98,176.61 -106,231.73 -43.97,43.26 -166.73,124.69 -185.38,148.35 124.57,-8.9 330.71,-90.04 439.88,-156.01l88.16 -62.13c13.39,-11.47 13.38,-13.96 26.32,-23.66 59.7,-44.8 143.66,-150.79 182.71,-216.94 114.88,-194.65 155.9,-432.98 55.08,-641.41 -142.07,-293.71 -500.49,-383.03 -832.24,-379.97 -255.78,2.36 -465.7,47.78 -635.74,164.25 -142.09,97.33 -297.32,301.26 -201.62,555.07 33.49,88.82 114.13,182.12 174.94,224.55 298.19,208.05 632.97,211.11 993.89,156.17z"/>
   <path class="fil2" d="M3.5 214.32l262.09 0.1 0.96 761.06c31.9,9.82 142.13,4.77 182.99,3.53l0.34 -764.59 261.05 0c10.6,-36.61 4.3,-113.66 4.32,-155.33l-715.25 0.99 3.5 154.24z"/>
   <path class="fil2" d="M1728.35 975.55c47.52,14.32 505.89,3.95 595.61,3.96l2.44 -155.08 -413.89 0c-6.07,-127.93 8.97,-710.93 -4.27,-767.9l-179.67 3.96 -0.22 915.06z"/>
   <path class="fil2" d="M6871.39 263.55c-12.65,-16.18 0.45,-1.38 -18.05,-11.02 -50.24,5.76 -43.33,2.15 -43.72,139.48l-0.01 387.33c0,67.98 -15.56,133.56 37.45,157.89 35.17,-29.81 30.54,-89.12 30.5,-145.4l0.06 -356.09c0.44,-60.1 -5.69,-116.33 -6.23,-172.19z"/>
   <path class="fil2" d="M7210.8 429.49c0,65.83 -6.85,381.24 11.64,418.57l40.46 4.66c33.56,-51.37 11.83,-484.89 10.43,-522.98 -73.61,-7.13 -62.53,33.2 -62.53,99.75z"/>
   <path class="fil2" d="M6415.88 358.59c-30.56,50.47 -14.38,370.21 -10.14,450.45 19.2,11.88 28.39,13.23 57.37,11.16 3.1,-66.74 18.29,-392.66 -7,-462.41l-40.23 0.8z"/>
   <path class="fil2" d="M7009.6 560.69l1.89 169c1.77,45.58 17.78,66.05 58.2,74.37 11.7,-223.15 12.88,-210.3 1.25,-411.76 -68.66,-7.54 -61.34,-1.81 -61.34,168.39z"/>
   <path class="fil2" d="M6615.65 685.63l45.65 7.83c27.24,-87.08 23.21,-146.6 -13.05,-215.26 -45.8,20.64 -39.06,28.5 -42.5,88.64 -1.84,32.02 -0.82,92.25 9.9,118.79z"/>
   <path class="fil4" d="M6871.39 263.55l-4.1 -16.53c-3.92,-0.08 -8.32,-0.77 -8.8,2.07 -0.4,2.34 -3.32,2.47 -5.15,3.44 18.5,9.64 5.4,-5.16 18.05,11.02z"/>
   <path class="fil5" d="M541.58 2743.07c-9.69,-30.48 -5.88,-273.67 -3.98,-333.69 1.29,-40.78 -4.42,-33.71 74.71,-34.17 131.27,-0.76 308.84,-14.24 390.04,56.86 58.71,51.41 83.85,229.67 -61.77,294.03 -100.31,44.34 -279.72,42.9 -399,16.97zm-3.59 -731.51c-2.38,-66.68 -2.5,-140.81 -1.74,-207.67 1.85,-162.49 -8.09,-147.02 57.46,-151.89 156.43,-11.63 428.95,-24.08 405.78,201.92 -20.14,196.28 -282.57,156.49 -461.5,157.64zm710.79 134.57c271.04,-97.04 336.78,-374.47 213.94,-611.59 -98.73,-190.59 -366.43,-269.86 -650.46,-281.62 -154.97,-6.42 -717.61,-3.78 -773.57,164.8 -21.59,65.04 -10.8,363.32 -10.73,454.89l-0.43 930.84c0,175.51 42.02,237.15 179.33,287.41 213.25,78.06 595.76,87.71 837.34,45.46 261.28,-45.7 467.6,-162.93 524.87,-413.07 30.97,-135.3 15.11,-279.59 -53.81,-379.26 -40.63,-58.77 -122.84,-128.41 -191.3,-158.55 -39.2,-17.25 -60.38,-18.98 -75.18,-39.31z"/>
   <path class="fil2" d="M8462.27 3113.6c7.87,-44.06 2.76,-431.51 2.75,-510.06 0,-95.02 4.51,-431.74 -4.26,-500.67 -14.15,-111.18 -41.74,-191.81 -114.58,-273.76 -10.91,-12.27 -16.7,-23.18 -28.27,-34.3 -106.53,-102.41 -253.52,-153.11 -400.74,-169.31 -163.51,-17.98 -314.56,-9.4 -464.19,26.94 -110.97,26.94 -281.18,98.44 -339.83,167.65 -45.14,53.26 -74.57,71.69 -78.32,177.23 -7.33,206.72 -0.17,539.94 -0.23,756.15 -0.09,271.8 -2.32,422.76 383.5,378.05 155.25,-17.99 127.4,8.14 127.46,-121.91 0.09,-170.76 0.15,-341.52 0.08,-512.28 -0.03,-85.38 -0.12,-170.76 -0.2,-256.13 -0.14,-146.46 -15.29,-166.45 54.98,-195.25 58.36,-23.91 149.12,-39.11 221.27,-23.47 170.87,37.03 132.6,199.62 132.76,381.15 0.08,83.28 -0.17,166.59 -0.26,249.88 -0.16,142.74 -25.02,362.34 70.91,433.81 97.82,72.87 308.13,55 437.17,26.28z"/>
   <path class="fil2" d="M1694.37 1678.47c-7.72,115.01 -1.22,476.66 -1.21,618.95 0.02,205.38 -18.15,381.78 67.3,551.01 136.73,270.78 521.65,357.95 907.94,294.01 158.93,-26.32 353.69,-94.83 418.5,-200.98 43.61,-71.44 36.72,-178.82 36.69,-275.45 -0.06,-176.53 15.76,-817.61 -23.79,-900.88 -33.92,-71.39 -98.53,-102.88 -200.95,-108.01 -80.44,-4.02 -215.03,2.25 -286.18,23.93l-0.01 1050.48c-139.39,42.88 -332.41,53.65 -388.4,-78.34 -34.41,-81.08 -20.34,-387.69 -20.24,-499.46 0.15,-162.34 28.13,-357.41 -70.01,-447.19 -92.67,-84.76 -312.93,-44.06 -439.64,-28.07z"/>
   <path class="fil2" d="M4840.11 2163.68c120.53,0 321.25,25.55 392.93,-43.34 72.9,-70.06 49.38,-255.87 -0.01,-346.16l-392.26 -0.7c-12.56,-155.18 33.99,-317.44 -88.74,-392.33 -93.82,-57.25 -307.67,-43.35 -413.2,-11.68 -11.03,50.7 -3.42,693.11 -3.42,803.01 0,211.25 -26.68,585.91 51.35,748.68 97.86,204.11 350.07,247.84 562.91,234.33 306.58,-19.47 391.56,-215.56 259.05,-424.57 -117.91,19.49 -334.84,68.7 -364.95,-79.59 -8.9,-43.86 -5.44,-418.43 -3.66,-487.65z"/>
   <path class="fil2" d="M3791.73 2163.68c120.98,0 325.72,23.66 390.67,-44.47 82.22,-86.23 47.95,-262.16 1.56,-345.05l-391.44 -0.68c-6.14,-86.64 4.11,-168.44 -7.66,-256.32 -11.57,-86.33 -43.07,-124.59 -111.68,-150.88 -106.3,-40.73 -234.81,-23.48 -347.46,-4.84 -31.07,5.13 -36.09,-1.8 -39.78,23.11l0.31 1106.54c0,181.14 -10.87,313.05 67.45,457.17 54.61,100.49 172.59,170.79 321.83,196.73 134.86,23.43 343.06,20.95 442.55,-46.6 47.24,-32.06 90.45,-86.56 100.23,-163.46 5.78,-45.39 0.46,-80.67 -14.18,-118.67l-43.38 -84.15c-131.64,16.33 -330.32,69.35 -365.32,-82.28 -15.43,-66.86 -5.15,-394.29 -3.7,-486.15z"/>
   <path class="fil0" d="M4918.48 916.78c30.33,-214.67 -123.85,-383.46 -302.24,-405.52 -359.23,-44.44 -529.92,354.66 -333.15,589.46 7.73,9.22 37.79,38.66 47.22,46.16 50.12,39.87 114.11,71.98 181.38,78.8 218.63,22.18 379.29,-114.37 406.79,-308.9z"/>
   <path class="fil2" d="M1043.66 614.83c1.87,-33.91 103.69,-333.72 122.11,-370.21 16.55,27.35 126.18,332.55 125.92,369.74l-248.03 0.47zm-49.02 152.95l347.36 0.75c29.23,56.27 43.88,145.98 70.9,209.34l193.11 -0.23 -319 -916.25c-66.64,-9.61 -161.81,-2.9 -230.73,-0.25 -59.56,138.89 -110.7,308.52 -162.09,456.57 -26.86,77.41 -53.34,154.98 -80.44,231.96 -15.01,42.66 -73.24,194.16 -75.35,228.03l185.14 1.45 71.1 -211.37z"/>
   <path class="fil2" d="M2654.2 431.94l-11.54 11.14 0.11 -34.18 -0.24 -351.13 -183.21 2.9 -0.57 918.27 183.07 0.22 4.24 -401.18c28.8,17.03 151.74,170.22 176.9,202.27 29.21,37.22 54.5,67.99 83.24,104.39 97.4,123.34 50.04,94.13 290.57,92.17l-332.09 -425.72c-15.88,-19.22 -34.09,-39.71 -44.93,-58.71 11.83,-20.39 27.66,-35.53 42.89,-55.15 39.92,-51.42 285.68,-346.52 299.53,-377.37 -231.11,-0.09 -175.35,-26.05 -271.83,92.51l-157.54 192.33c-24.13,26.29 -52.48,62.96 -78.6,87.24z"/>
   <path class="fil2" d="M3793.14 285c21.26,-37.9 80.13,-102.86 91.59,-131.64 -49.82,-45.3 -129.89,-88.13 -219.68,-101.99 -435.51,-67.24 -516.15,306.38 -338.17,449.92 140.4,113.23 435.74,62.23 401.16,239 -20.12,102.91 -150.59,102.01 -218.9,84.25 -42.8,-11.13 -78.55,-31.29 -108.58,-53.66 -47.33,-35.26 -62.94,-64.31 -83.19,-74.24 -22.09,20.95 -33.92,38.69 -55.93,64.17 -16.31,18.89 -41.23,46.78 -48.85,68.51 50.25,45.07 71.39,86.19 151.27,121.69 66.84,29.7 149.1,41.54 234.63,41.57 297.48,0.13 373.25,-258.36 287.46,-419.47 -68.87,-129.34 -217.52,-129.57 -347.15,-165.76 -212.89,-59.44 -121.36,-233.44 77.36,-201.91 98.67,15.65 136.72,63.65 176.98,79.56z"/>
   <path class="fil2" d="M7147.02 1339.37c3.79,-24.27 49.63,-95.92 62.26,-135.25 24.66,-76.8 3.14,-106.67 -5.85,-179.14 -101.92,10.52 -166.04,39.86 -312.64,44.5 -113.21,3.59 -223.3,-2.5 -329.97,-23.94 -198.89,-39.97 -360.63,-123.47 -451.65,-246.67 -135.6,-183.53 -89.68,-362.18 34.52,-504.45 261.78,-299.86 1283.61,-369.92 1481.29,175.48 108.29,298.77 -91.42,643.97 -362.36,805.85 -27.51,16.44 -83.74,54.41 -115.6,63.62zm12.77 -235.15c-3.22,82.09 -49.98,176.61 -106,231.73 -43.97,43.26 -166.73,124.69 -185.38,148.35 124.57,-8.9 330.71,-90.04 439.88,-156.01l88.16 -62.13c13.39,-11.47 13.38,-13.96 26.32,-23.66 59.7,-44.8 143.66,-150.79 182.71,-216.94 114.88,-194.65 155.9,-432.98 55.08,-641.41 -142.07,-293.71 -500.49,-383.03 -832.24,-379.97 -255.78,2.36 -465.7,47.78 -635.74,164.25 -142.09,97.33 -297.32,301.26 -201.62,555.07 33.49,88.82 114.13,182.12 174.94,224.55 298.19,208.05 632.97,211.11 993.89,156.17z"/>
   <path class="fil2" d="M3.5 214.32l262.09 0.1 0.96 761.06c31.9,9.82 142.13,4.77 182.99,3.53l0.34 -764.59 261.05 0c10.6,-36.61 4.3,-113.66 4.32,-155.33l-715.25 0.99 3.5 154.24z"/>
   <path class="fil2" d="M1728.35 975.55c47.52,14.32 505.89,3.95 595.61,3.96l2.44 -155.08 -413.89 0c-6.07,-127.93 8.97,-710.93 -4.27,-767.9l-179.67 3.96 -0.22 915.06z"/>
   <path class="fil2" d="M6871.39 263.55c-12.65,-16.18 0.45,-1.38 -18.05,-11.02 -50.24,5.76 -43.33,2.15 -43.72,139.48l-0.01 387.33c0,67.98 -15.56,133.56 37.45,157.89 35.17,-29.81 30.54,-89.12 30.5,-145.4l0.06 -356.09c0.44,-60.1 -5.69,-116.33 -6.23,-172.19z"/>
   <path class="fil2" d="M7210.8 429.49c0,65.83 -6.85,381.24 11.64,418.57l40.46 4.66c33.56,-51.37 11.83,-484.89 10.43,-522.98 -73.61,-7.13 -62.53,33.2 -62.53,99.75z"/>
   <path class="fil2" d="M6415.88 358.59c-30.56,50.47 -14.38,370.21 -10.14,450.45 19.2,11.88 28.39,13.23 57.37,11.16 3.1,-66.74 18.29,-392.66 -7,-462.41l-40.23 0.8z"/>
   <path class="fil2" d="M7009.6 560.69l1.89 169c1.77,45.58 17.78,66.05 58.2,74.37 11.7,-223.15 12.88,-210.3 1.25,-411.76 -68.66,-7.54 -61.34,-1.81 -61.34,168.39z"/>
   <path class="fil2" d="M6615.65 685.63l45.65 7.83c27.24,-87.08 23.21,-146.6 -13.05,-215.26 -45.8,20.64 -39.06,28.5 -42.5,88.64 -1.84,32.02 -0.82,92.25 9.9,118.79z"/>
   <path class="fil4" d="M6871.39 263.55l-4.1 -16.53c-3.92,-0.08 -8.32,-0.77 -8.8,2.07 -0.4,2.34 -3.32,2.47 -5.15,3.44 18.5,9.64 5.4,-5.16 18.05,11.02z"/>
   <path class="fil6" d="M6092.31 2586.42c81.71,-42.48 214.92,-103.42 285.63,-145.57 33.45,-19.95 63.09,-34.77 64.7,-80.91 2.58,-74.02 -91.56,-103.37 -149.67,-133.77 -63.23,-33.06 -125.67,-63.11 -191.85,-95.42 -45.91,-22.41 -157.73,-96.15 -212.68,-54.9 -54.79,41.14 -36.52,172.63 -36.34,252.81 0.2,96.89 -21.05,262.99 31.08,301.93 60.96,45.54 159.93,-18.58 209.13,-44.17z"/>
  </g>
 </g>
</svg>
