<?xml version="1.0" encoding="UTF-8"?>
<!DOCTYPE svg PUBLIC "-//W3C//DTD SVG 1.1//EN" "http://www.w3.org/Graphics/SVG/1.1/DTD/svg11.dtd">
<!-- Creator: CorelDRAW -->
<svg xmlns="http://www.w3.org/2000/svg" xml:space="preserve" width="16.1078mm" height="13.2722mm" version="1.1" style="shape-rendering:geometricPrecision; text-rendering:geometricPrecision; image-rendering:optimizeQuality; fill-rule:evenodd; clip-rule:evenodd"
viewBox="0 0 1610.78 1327.22"
 xmlns:xlink="http://www.w3.org/1999/xlink"
 xmlns:xodm="http://www.corel.com/coreldraw/odm/2003">
 <defs>
  <style type="text/css">
   <![CDATA[
    .fil4 {fill:none}
    .fil1 {fill:#2348AB}
    .fil3 {fill:#2348AB}
    .fil2 {fill:#F2CC35}
    .fil0 {fill:#F435B1}
   ]]>
  </style>
 </defs>
 <g id="Layer_x0020_1">
  <metadata id="CorelCorpID_0Corel-Layer"/>
  <g id="_2053933483296">
   <path class="fil0" d="M841.89 903.86c0,-132.53 42.31,-88.92 185.69,-17.28 17.39,8.69 59.7,23.72 67.02,45.69 15.13,45.45 -62.76,67.84 -123.93,98.42 -47.19,23.59 -128.78,84.6 -128.78,-17.56l0 -109.27zm470.65 -86.4c-19.91,-21.81 -52.35,-211.82 -307.17,-237.19 -89.77,-8.93 -131.53,12.6 -164.25,12.18 -0.11,-67.83 13.37,-171.97 -25.33,-214.17 -17.52,-19.11 -32.61,-15.95 -50.84,-29.52 -61.98,6.85 -55.09,-12.32 -172.32,12.48 -4.69,88.76 -0.55,188.86 -0.58,278.87 -0.03,92.94 0,185.88 0,278.82 0,62.84 -8.06,220.04 9.88,268.58 53.75,145.5 436.12,208.79 607.86,59.47 84.7,-73.65 122.81,-179.79 119.15,-301.67 -0.67,-22.28 -2.83,-47.46 -5.99,-68.27 -3.02,-19.92 -11.77,-41.19 -10.41,-59.58z"/>
   <path class="fil1" d="M83.73 458.9c-4.8,73.27 -0.72,298.81 -0.72,388.44 0,101.47 -12.52,290.19 24.55,367.38 41.9,87.27 148.73,124.15 276.94,115.18 93.36,-6.54 163.42,-49.43 152.63,-138.09 -4.09,-33.59 -18.21,-45.61 -29,-69 -40.13,3.95 -159.37,38.53 -177.16,-37.28 -7.02,-29.93 -5.06,-199.63 -2.35,-238.51 57.1,0 158.45,11.6 191.73,-21.96 34.86,-35.17 26.05,-125.92 -1.71,-168.14l-190.72 0c-0.07,-72.85 12.6,-158.37 -40.53,-191.38 -55.71,-34.61 -142.36,-15.43 -203.66,-6.64z"/>
   <path class="fil2" d="M163.05 9.63c-99.26,13.83 -190.24,111.17 -166.71,234.85 19.43,102.08 114.61,188.56 238.91,166.51 97.28,-17.25 186.08,-113.71 165.32,-235.33 -18.47,-108.2 -111.1,-183.65 -237.52,-166.03z"/>
   <path class="fil3" d="M1381.53 528.39c16.47,-52.64 37.99,-37.76 20.73,-123.62 -78.44,20.23 -165.96,26.47 -248.53,9.21 -82.77,-17.29 -136.88,-45.14 -177.49,-98.14 -50.33,-65.69 -31.18,-146.16 14.24,-196.38 112.45,-124.32 504.73,-138.54 575.23,66.48 27.06,78.67 3.45,156.85 -32.88,216.12 -5.64,9.2 -23.31,32.87 -28.86,38.85 -29.98,32.3 -78.72,71.61 -122.44,87.48zm-421.66 -187.48c23.66,13.14 51.18,67.21 176.98,96.37 38.48,8.92 82.5,12.52 125.51,12.5 47.01,-0.02 82.71,-10.37 123.95,-14.32 -9.29,63.45 -36.69,91.03 -80.73,123.51 -10.62,7.83 -29.22,20.7 -33.7,29.8 96.14,-32.99 133.09,-27.39 220.09,-103.4 198.26,-173.21 150.94,-518.1 -297.41,-476.69 -2.79,1.02 -51.8,7.22 -63.45,9.84 -128.75,28.93 -248.62,129.75 -198.76,269.65 8.08,22.64 23.31,38.19 27.52,52.74z"/>
   <path class="fil4" d="M841.89 903.86l0 109.27c0,102.16 81.59,41.15 128.78,17.56 61.17,-30.58 139.06,-52.97 123.93,-98.42 -7.32,-21.97 -49.63,-37 -67.02,-45.69 -143.38,-71.64 -185.69,-115.25 -185.69,17.28z"/>
   <path class="fil3" d="M1269.15 369.07c13.72,-31.27 7.47,-181.34 7.47,-222.56 0,-63.64 -24.9,-53.72 -26.68,-23.05l0.18 226.99c2.38,17.97 1.64,15.94 19.03,18.62z"/>
   <path class="fil3" d="M1432.78 244.48c0,-28.24 5.87,-90.13 -6.18,-111.56 -26.59,-0.74 -20.21,1.82 -20.23,62.57l0.62 127.67c2.2,14.09 14.29,21.46 22.18,9.61 6.51,-9.79 3.6,-72.49 3.61,-88.29z"/>
   <path class="fil3" d="M1092.81 187.96l0.08 97.96c0.02,25.01 -7.11,39.98 19.15,40.97 12.32,-20.06 6.96,-79.06 6.96,-105.02 0,-13.89 2.4,-64.35 -2.81,-73.05 -6.46,-10.77 -17.96,-7.45 -21.88,2.11 -2.32,5.67 -1.54,29.53 -1.5,37.03z"/>
   <path class="fil3" d="M1326.84 199.26c0,27.19 -7.93,109.96 10.88,115.4 25.56,7.4 18.02,-62.55 18.02,-89.02 0,-21.64 4.89,-57.04 -10.48,-70.85 -21.7,1.69 -18.42,22.61 -18.42,44.47z"/>
   <path class="fil3" d="M1187 280.91c11.52,-17.52 19.68,-71.45 0,-86.73 -26.93,6.75 -24.39,67.68 0,86.73z"/>
  </g>
 </g>
</svg>
